<?xml version="1.0" encoding="UTF-8"?>
<svg id="Layer_1" data-name="Layer 1" xmlns="http://www.w3.org/2000/svg" viewBox="0 0 2000 3000">
  <defs>
    <style>
      .cls-1 {
        fill: #fff;
      }
    </style>
  </defs>
  <g id="itR7LD">
    <g>
      <path class="cls-1" d="M1267.91,1832.19c13.94,2.31,30.07,6.6,42.9-1.56,18.9-12.03,36.46-36.71,52-52.91l18.5-24.46c1.05.25.62,19.11.55,21.53-.46,16.94-3.06,36-1.06,52.92.46,3.92,1.21,4.96,5.02,5.99.19,4.29-43.67,40.15-50.05,44.86-15.78,11.65-32.22,18.53-52.38,19.55-5.82.3-9.89-1.38-15.47-1.98v-63.94Z"/>
      <path class="cls-1" d="M1624.59,1453.57l-4.49,76.92c-8.65,6.63-17.58,13.04-25.95,20.01-6.76,5.63-15.34,12.45-21.52,18.44-4.92,4.77-9.24,11.67-13.94,16.03-.98.91-1.42,1.83-3.02,1.46l3.15-74.26c10.38-9.28,22.66-16.61,32.83-26.12,9.81-9.18,19.51-22.98,29.95-30.99,1-.77,1.27-1.94,3-1.49Z"/>
      <path class="cls-1" d="M1268.91,1735.78c.4-1.26,20.22-7.35,23.68-9.29,16.37-9.19,28.63-29.35,40.75-43.17,16-18.25,32.6-35.99,49.98-52.92,2.27-.42,1.36.99,1.48,2.47.37,4.6-.9,7.92-1.04,11.97-.25,7.07,1.33,36.38-.89,40.07-1.17,1.95-14.77,10.54-17.95,13.02-8.9,6.94-18.05,14-26.55,21.4-12.29,10.7-32.31,34.23-47.24,38.68-6.25,1.86-15.64,1.4-22.23,3.25v-25.47Z"/>
      <path class="cls-1" d="M1386.81,1552.96c-19.93,20.58-38.59,41.15-55.77,64.12-9.54,12.75-24.35,40.02-38.15,45.77-6.68,2.78-15.85,3.89-22.98,5.5v-29.97c6.26-1.5,14.01-3.81,19.66-6.81,21.85-11.6,53.37-62.42,69.86-83.99,8.83-11.55,17.67-23.23,27.37-34.07v39.46Z"/>
      <path class="cls-1" d="M1550.67,1724.29l1.51-39.94c7.38-9.23,19.12-13.81,27.94-21.02,14.38-11.75,22.72-28.42,34.99-41.93,1.45,1.02,1.36,1.6,1.29,3.18-.71,15.88-1.33,32.07-3.34,47.71-20.19,18.16-37.26,40.13-62.39,52Z"/>
      <path class="cls-1" d="M1241.94,2210.8l-12.49,9.01c-1.23,5.04-1.3,10.46-2.52,15.48-.28,1.17.75,1.81-1.46,1.49l-57.48-30.45c-1.75-1.96-1.39-18.29-.1-21.1,1.1-2.38,10.71-6.66,13.34-6.22l57.4,28.61,3.3,3.17Z"/>
      <path class="cls-1" d="M836.18,2000.15c-2.13,10.52-2.11,21.11-1.89,31.84l-60.96-30.45-2.75-22.88,5.88-8.49,59.72,29.98Z"/>
      <path class="cls-1" d="M975.17,2070.96c-.74,4.78-5.69,7.36-7.48,11.99s-1.5,10.18-3.05,14.97c-.38,1.18-.07,2.53-1.78,1.85l-55.73-29.28,2.12-20.78c2.81-1.82,7.7-7.01,10.99-6.32l54.95,27.57Z"/>
      <path class="cls-1" d="M1114.04,2177.85l-34.45-17.99c-.77-1.28-.92-18.21-.49-20.45.23-1.19,6.04-8.6,7-9.07l42.94,21.05c.56,2.39-8.96,5.94-10.44,8.52s-3.76,17.22-4.55,17.94Z"/>
      <path class="cls-1" d="M542.54,1571.45l2.88,45.84c-9.02,2.95-15.89,6.68-25.86,5.11l-3.99-46.95c1.01-.95,12.76.85,15.1.45,1.56-.26,11-5.47,11.86-4.45Z"/>
      <path class="cls-1" d="M646.42,1902.16c.09,4.02-3,6.69-3.89,10.52-1.33,5.75-.89,13.46-1.08,19.4l-37.82-19.64.88-20.6,5.61-6.78,36.29,17.11Z"/>
      <path class="cls-1" d="M552.53,1705.32l2.82,42.26c-6.45,6.54-15.33,10.83-24.8,9.69l-3.92-45.33c1-3.54,9.24-.42,11.98-1.19,2.21-.63,12.7-6.69,13.92-5.42Z"/>
      <path class="cls-1" d="M1059.1,2113.92c1.32,1.4-5.62,9.63-5.98,11.5-1.02,5.32.05,14.66-.03,20.45l-39.73-20.44,6.31-17.47c.86-1.14,10.74-5.69,12.11-5.81,3.71-.32,21.62,11.89,27.31,11.77Z"/>
      <path class="cls-1" d="M708.4,1964.56c-.07,1.1.3,3-1.45,2.46-2.12-.66-19.18-9.69-20.93-11.05-.58-.45-1.26-.73-1.44-1.55l.86-20.62,6.53-7.76,21.42,11.07c.67,2.72-4.99,6.95-4.99,8.48,0,6.19.36,12.87,0,18.98Z"/>
      <path class="cls-1" d="M558.53,1789.23l1.54,29.01c-8.03,3.87-15.47,5.96-24.52,4.96l-1.59-26.03c8.58-2.02,16.5-5,24.57-7.94Z"/>
      <path class="cls-1" d="M531.55,1416.6c-1.17,6.37,3.05,17.29.49,22.95-.34.75-11.36,10.48-12.25,10.94-1.57.8-12.3,4.33-13.26,3.64l-1.48-21.59c.96-1.42,11.14-4.17,13.46-5.52,2.96-1.73,7.13-6.67,10.05-8.93,1-.78,1.28-1.93,3-1.48Z"/>
      <path class="cls-1" d="M895.24,2030c-.55,4.19-5.9,4.61-7.73,8.75-1.53,3.48-2.25,19.45-3.28,20.21l-14.49-7.98c-.63-10.44-2.4-20.88,3.59-29.91l21.9,8.93Z"/>
      <path class="cls-1" d="M489.59,1254.76c11.53.85,18.88-6.16,28.95-8.99,2.35,21.99,3.49,44.34,5.07,66.5.11,1.54-.06,2.72-.98,4-.44.61-11.15,8.34-12.15,8.83-1.23.6-14.35,5.15-14.89,4.59l-4.01-58.43-1.99-11.49v-5Z"/>
      <path class="cls-1" d="M511.58,1523.49l-.84-18.82c9.05-3.71,18.16-8.54,24.31-16.14,2.86,1.14,2.39,18.51,3.06,21.97-8.03,6.25-16.11,11.83-26.53,12.99Z"/>
      <path class="cls-1" d="M1553.66,1633.88c.21-.75,10.85-8.59,12.44-9.54.78-.46,1.78-1.99,2.56-.44-1.54,9.82-6.71,18.48-12.71,26.2-.64.83.03,1.82-2.29,1.26v-17.48Z"/>
      <g>
        <path class="cls-1" d="M735.38,1235.78l-60.81-11.13c-.13-7.11-1.59-23.56,6.13-27.06,1.83-.83,4.46-1.05,6.52-1.47,16.31-3.35,35.94-5.32,52.67-7.28,114.3-13.41,229.79-21.61,344.68-29.99,15.05-1.1,23.62-1.49,38.98,1,1.49.24,3.08.05,3.49,1.99-128.4,14.78-257.67,23.1-384.94,46.19-2.12,1.05-6.72,9.29-6.72,11.27v16.48Z"/>
        <path class="cls-1" d="M1209.97,1170.84c3.38,2.53-7.43,1.99-8.37,2.12-88.35,12.31-175.23,31.92-263.9,41.82-31.41,3.51-67.03,3.77-97.63,9.28-2.46.44-8.46,1.43-9.83,3.4l-6,24.22-23.92-3.94c3.65-7.68,2.38-26,11.57-28.89,81.92-10.51,161.9-31.38,243.85-41.89,36.4-4.67,73.27-6.5,109.73-11.17l44.51,5.04Z"/>
        <path class="cls-1" d="M1202.96,1321.69l-61.98-11.44c-2.28-9.86-1.96-29.94,8.76-35.28,5.57-2.77,20.38-5.19,27.24-6.73,61.64-13.87,127.6-19.8,187.62-38.18,12.43-3.81,32.18-13.44,44.33-12.67,2,.13,4.5.2,5.85,1.92.32,1.51-2.53,3.53-3.66,4.31-4.01,2.78-18.33,9.03-23.63,11.34-42.55,18.53-91.86,26.17-136.77,38.07-10.72,2.84-31.38,7.04-40.47,11.49-12.03,5.89-7.75,26.43-7.28,37.18Z"/>
        <path class="cls-1" d="M935.2,1144.87c.59,2.65-1.17,2.02-2.96,2.48-11.96,3.02-26.48,5.11-38.81,7.2-52.18,8.81-105.86,14.4-158.56,20.29-35.89,4.01-76.63,5.15-111.62,11.27-2.17.38-5.42.86-7.34,1.65-7.73,3.22-8.34,23.65-10.03,24.12l-45.38-8.53c-2.18-2.17.45-18.62,2.54-21.5,2.33-3.21,9.28-4.28,13.09-4.89,20.98-3.35,47.18-4.34,68.83-6.11,68.83-5.62,138.05-8.42,206.8-16,23.87-2.63,49.47-8.1,72.96-9.96,3.46-.28,7.01.15,10.47-.01Z"/>
        <path class="cls-1" d="M1203.96,1201.81c.73,2.74-5.11,3.07-6.98,3.51-11.22,2.65-24.16,4.5-35.65,6.31-70.79,11.18-142.08,19.64-213,29.78-15.16,2.24-11.95,20.16-17.7,30.4l-47.27-9.64c2.84-8.48,1.81-24.55,11.68-28.1,17.19-6.18,43.43-3.54,61.65-8.29,82.61-5.96,165.07-14.46,247.27-23.98Z"/>
        <path class="cls-1" d="M1275.91,1206.8c-.1,1.18.53,2.14-.62,3.07-2.07,1.67-11.69,3.94-14.95,4.84-27.89,7.75-62.44,14.36-91.16,19.74-49.78,9.33-100.32,13.35-150.3,21.55-5.19,2.09-8.84,22.41-9.94,28.02l-2.2,1.65-21.51-4.02c1.95-9.99-1.47-23.89,7.88-30.44,5.64-3.95,39.59-9.37,48.81-11.14,66.89-12.76,134.59-16.11,201.2-28.6,4.4-.82,14.16-4.68,17.3-4.68h15.49Z"/>
        <path class="cls-1" d="M1438.76,1199.82c.28,2.6,0,1.59-1.47,2.02-42.77,12.6-87.18,14.97-130.63,22.24-12.06,2.02-42.77,11.72-51.98,10.43-1.53-.21-5.05-.88-5.75-2.24-.47-2.03.83-1.35,1.96-1.96,7.79-4.25,15.47-6.68,24-9.02,38.18-10.47,78.19-17.28,116.54-27.41l47.32,5.95Z"/>
        <path class="cls-1" d="M1206.96,1254.75c-7.18.36-13.55,3.37-20.77,4.71-23.86,4.43-48.49,5.78-72.11,11.81-7.97,9.05-9.48,19.74-10.02,31.44l-42.97-7.01c6.91-15.18,8.95-28.77,27.6-31.84,30.78-5.07,68.45-8.47,99.79-11.1,3-.25,13.73-1.41,15.96-1.02,1.71.3,2.83,1.12,2.52,3.01Z"/>
        <path class="cls-1" d="M719.39,1152.86c.46,2.71-.5,1.72-2.17,2.26-3.33,1.07-8.05,1.81-11.6,2.44-50.41,8.87-101.61,13.66-152.31,19.52-7.15,2.87-6.54,17.14-7.76,23.74-7.35-1.82-19.65-1.71-26.29-4.19-4.33-1.62-.46-17.57,2.28-21.05,2.05-2.6,9.47-5.04,12.77-5.48,23.95-3.2,51.16-2.98,75.67-5.26,32.18-2.99,66.22-9.92,97.93-11.97,3.8-.25,7.67.14,11.47,0Z"/>
        <path class="cls-1" d="M1070.07,1152.86l-1.47,2-68.97,5.98c-53.58,1.25-106.91,4.78-160.34,8-.47-2.84.59-1.67,2.3-2.13,2.76-.75,6.44-1.34,9.31-1.73,34.69-4.7,69.86-5.78,104.65-10.25,16.19-2.08,40.21-8.73,55.13-8.9,13.96-.16,41.91,4.87,56.61,7.38,1.09.19,1.79-.06,2.78-.35Z"/>
        <path class="cls-1" d="M1292.89,1182.82c-19.16,2.2-38.27,5.02-57.45,7-23.22,2.39-46.76,3.1-69.92,6.01-18.33,2.3-43.41,10.29-60.12,10.9-2.59.09-4.79-1.04-7.34-.93-2.05-1.77,4.76-3.67,5.56-3.93,22.16-7.44,57.27-11.85,81.14-15.77,19.35-3.18,42.55-7.76,61.76-9.21,11.67-.88,30.93,2,42.89,3.94,1.49.24,3.08.05,3.49,1.99Z"/>
        <path class="cls-1" d="M944.19,1138.86l-121.41,7.05c-17.9,1-35.5,5.89-53.43,5.94-.38-2.13.95-2.39,2.5-2.98,6.74-2.58,21.29-3.77,29.11-4.86,21.07-2.93,42.62-5.22,63.81-7.13,27.58-2.48,48.26-3.82,75.96-.03,1.5.2,3.08.14,3.47,2.01Z"/>
        <path class="cls-1" d="M1432.77,1232.78c-.47-2.78.57-1.68,2.19-2.26,10.06-3.55,22.16-6.7,32.56-9.45,27.41-7.24,54.09-15.01,82.34-6.97,1.03.29,3.03.23,2.79,1.68-29.13,2.07-58.24,6.95-86.93,12.49-4.17.8-13.47,4.51-16.48,4.51h-16.49Z"/>
        <path class="cls-1" d="M642.46,1218.79l-17.99-3c2.21-5.57,4.94-24,10.24-26.22,25.03-2.13,50.14-7.36,75.19-8.73,3.49-.19,7.49-.16,10.99-.01,1.31.06,4.2-.82,3.49,1.49l-74.2,9.74c-4.04.5-7.74,5.51-7.74,9.25v17.48Z"/>
        <path class="cls-1" d="M862.27,1126.88c3.38.25,9.71,1.33,13.48,2.03,1.63.3,1.73-.65,1.5,1.96-12.78.03-25.73.6-38.45,2.02-15.03,1.68-35.38,7.85-49.99,5.98-1.37-.18-3.08-.69-1.49-1.99l62.95-10c3.96.21,8.05-.29,11.99,0Z"/>
      </g>
      <path class="cls-1" d="M1156.01,2198.82c-2.73.54-1.71-.68-2.42-2.02-1.24-2.35-1.82-5.18-4.15-6.89l-5.41,2.92,1.99-4.54c4.18-2.63,9.54,7.03,9.99,10.53Z"/>
      <g>
        <path class="cls-1" d="M1608.61,1809.22c-3.92,16.64-1.74,34.12-4.47,50.96-15.31,7.48-28.47,18.32-40.68,30.01-15.53,14.86-32.42,33.05-47.27,48.88-6.29,6.7-25.06,31.83-32.2,33.73-1.77.47-4.72.68-6.3-.22-1.31-.87-.39-1.44-.3-2.3,1.99-18.33,34.04-49.29,45.73-64.25,9.67-12.38,17.5-26.45,26.74-39.19,15.84-21.83,33.86-45.93,58.76-57.62Z"/>
        <path class="cls-1" d="M1610.61,1734.29l-2.15,43.8c-17.13,8.36-32.95,19.26-50.44,26.98-6.67,2.94-15.12,4.52-21.03,7.94-9.77,5.64-17.01,19.23-29.27,20.17-.4-6.1,2.15-12.25,4.96-17.51,16.54-30.96,61.36-45.68,84.49-72.36l13.44-9.03Z"/>
        <path class="cls-1" d="M1265.91,2136.89c9.07-1.18,18.49,3.06,27.39,1.91,7.95-1.03,19.88-7.87,26.47-12.49,31.28-21.91,64.69-50.21,92.03-76.81,23.07-22.44,35.84-22.06,63.59-34.32,13.53-5.98,26-14.5,39.61-20.33,16.08-6.89,33.27-10.31,48.65-19.29,14.07-8.21,23.04-22.32,36.45-31.48.8,2.09.66,5.26.54,7.54-.49,9-1.51,17.9-2.04,26.93-.38,6.55.91,13.33-1.03,19.69-15.7,12.54-29.6,29.84-46.81,40.37-9.95,6.09-28.75,11.89-40.57,16.38-13.01,4.93-28.86,5.31-40.15,10.8-40.94,19.93-83.38,61.65-121.34,88.47-19.68,13.91-39.77,27.89-65.25,24.5-5.4-.72-11.81-4.59-17.57-4.91v-36.96Z"/>
        <path class="cls-1" d="M1266.91,2017.01c14.64,3.09,27.24,7.75,40.88-.58,17.07-10.43,37.71-39.89,51.52-55.38,20.73-23.24,40.98-37.46,68.76-51.13,21.36-10.51,34.02-16.53,53.12-31.8,7.68-6.14,35.7-34.02,43.02-33.91,9.64,4.44-6.12,21.12-10.54,26.42-11.63,13.93-25.91,25.51-37.91,39.01-17.24,19.4-30.37,43.11-47.47,62.43-27.48,31.03-65.85,57.64-97.08,85.25-11.92,10.54-16.01,19.96-33.29,24.16-10.4,2.53-20.64,3.17-31.01.47v-64.94Z"/>
      </g>
      <g>
        <path class="cls-1" d="M1270.91,1503.51v-94.41c4.7-2.37,11.34-3.16,16.8-4.18,13.25-2.49,19.91-4.9,32.39-8.57,34.85-10.27,71.6-9.64,107.07-15.82,5.9-1.03,16.82-5.79,21.85-4.71,2.61.56,6.6,4.33,6.47,7.13s-15.18,21.46-18.22,24.66c-22.42,23.63-51.37,24.57-78.11,38.78-21.94,11.66-38.07,31.92-58.94,44.96-9.67,6.04-18.37,9-29.31,12.15Z"/>
        <path class="cls-1" d="M1631.59,1307.71c-1.74,25.31-1.56,50.83-4.51,75.9-15.14,12.05-29.18,25.63-44.54,37.38-2.58,1.98-19.18,14.3-20.5,14.5-2.4.36-2.54-3.69-3.52-5.26-1.9-3.02-4.38-4.25-7.99-4.1l-127.75,40.41c19.72-25.83,45.57-46.22,73.02-63.34,22.47-14.02,46.8-25,68.19-40.71l67.6-54.77Z"/>
      </g>
    </g>
  </g>
</svg>